<svg width="84" height="29" viewBox="0 0 84 29" fill="none" xmlns="http://www.w3.org/2000/svg">
<path d="M0 25.2581H14.8791V29H0V25.2581Z" fill="#161E2E"/>
<path d="M21.4557 23.1155C20.0075 22.9948 18.8271 22.7735 17.9145 22.4516C17.0217 22.1096 16.3571 21.828 15.9207 21.6067L17.2003 18.1363C17.8947 18.4783 18.718 18.7901 19.6702 19.0718C20.6423 19.3534 21.664 19.4943 22.7353 19.4943C23.9455 19.4943 24.7688 19.3333 25.2053 19.0114C25.6616 18.6694 25.8897 18.1967 25.8897 17.5931C25.8897 17.2109 25.8004 16.889 25.6219 16.6275C25.4433 16.3458 25.1854 16.0943 24.8482 15.873C24.5109 15.6518 24.0844 15.4405 23.5686 15.2393C23.0528 15.018 22.4576 14.7867 21.7831 14.5453C21.1284 14.3038 20.4836 14.0423 19.8488 13.7607C19.2338 13.4589 18.6684 13.0968 18.1526 12.6743C17.6566 12.2518 17.2499 11.7388 16.9325 11.1353C16.6349 10.5116 16.4861 9.76725 16.4861 8.90218C16.4861 8.23829 16.5754 7.60458 16.7539 7.00104C16.9523 6.37738 17.2499 5.81408 17.6467 5.31113C18.0434 4.80819 18.5593 4.38571 19.1941 4.0437C19.8289 3.68158 20.5828 3.42005 21.4557 3.2591V0H25.2053V3.1384C26.2369 3.23899 27.1197 3.38987 27.8538 3.59105C28.6076 3.79223 29.2028 3.99341 29.6393 4.19459L28.7168 7.81582C28.0621 7.53416 27.2983 7.29275 26.4254 7.09157C25.5723 6.89039 24.6696 6.7898 23.7174 6.7898C22.7651 6.7898 22.0807 6.95074 21.664 7.27263C21.2474 7.59452 21.0391 8.01699 21.0391 8.54006C21.0391 8.86195 21.0986 9.1436 21.2177 9.38501C21.3565 9.60631 21.5648 9.80749 21.8426 9.98855C22.1203 10.1696 22.4576 10.3507 22.8544 10.5317C23.271 10.6927 23.767 10.8737 24.3423 11.0749C25.2152 11.3968 26.0187 11.7489 26.7527 12.1311C27.5066 12.5134 28.1513 12.9559 28.687 13.4589C29.2425 13.9417 29.669 14.5151 29.9666 15.179C30.284 15.8429 30.4427 16.6174 30.4427 17.5026C30.4427 18.1061 30.3535 18.7097 30.1749 19.3132C29.9964 19.8966 29.6988 20.4398 29.2822 20.9428C28.8655 21.4457 28.32 21.8782 27.6455 22.2404C26.9908 22.6025 26.1774 22.864 25.2053 23.025V26.7066H21.4557V23.1155Z" fill="#161E2E"/>
<path d="M47.2371 22.8741C46.4832 23.0954 45.5111 23.2966 44.3208 23.4776C43.1305 23.6788 41.8806 23.7794 40.5713 23.7794C39.2421 23.7794 38.1311 23.5983 37.2383 23.2362C36.3654 22.8741 35.6711 22.3711 35.1552 21.7274C34.6394 21.0635 34.2724 20.2789 34.0542 19.3736C33.836 18.4683 33.7268 17.4724 33.7268 16.3861V7.54422H38.1608V15.8429C38.1608 17.2914 38.3493 18.3375 38.7262 18.9813C39.1032 19.625 39.8075 19.9469 40.8391 19.9469C41.1565 19.9469 41.4938 19.9369 41.8509 19.9167C42.208 19.8765 42.5254 19.8363 42.8031 19.796V7.54422H47.2371V22.8741Z" fill="#161E2E"/>
<path d="M55.1786 15.36C55.1786 16.7482 55.4861 17.8647 56.1011 18.7097C56.7161 19.5546 57.6287 19.9771 58.8389 19.9771C59.2357 19.9771 59.6027 19.967 59.94 19.9469C60.2772 19.9067 60.555 19.8665 60.7732 19.8262V11.6483C60.4954 11.4672 60.1284 11.3163 59.6721 11.1956C59.2357 11.0749 58.7893 11.0146 58.333 11.0146C56.2301 11.0146 55.1786 12.4631 55.1786 15.36ZM65.2072 22.9043C64.8104 23.025 64.3541 23.1457 63.8383 23.2664C63.3225 23.367 62.7769 23.4575 62.2016 23.538C61.6461 23.6185 61.0708 23.6788 60.4756 23.719C59.9003 23.7794 59.3448 23.8096 58.8091 23.8096C57.5196 23.8096 56.369 23.6185 55.3572 23.2362C54.3454 22.854 53.4923 22.3108 52.798 21.6067C52.1036 20.8824 51.568 20.0173 51.191 19.0114C50.8339 17.9854 50.6554 16.8387 50.6554 15.5713C50.6554 14.2837 50.8141 13.1269 51.1315 12.1009C51.4489 11.0548 51.9052 10.1696 52.5004 9.44537C53.0955 8.72112 53.8197 8.16788 54.6727 7.78564C55.5456 7.4034 56.5376 7.21228 57.6486 7.21228C58.2636 7.21228 58.8091 7.27263 59.2853 7.39334C59.7812 7.51405 60.2772 7.68505 60.7732 7.90635V0.724245L65.2072 0V22.9043Z" fill="#161E2E"/>
<path d="M84 15.4506C84 16.6979 83.8215 17.8446 83.4644 18.8907C83.1073 19.9168 82.5914 20.8019 81.9169 21.5463C81.2424 22.2706 80.429 22.8339 79.4767 23.2362C78.5443 23.6386 77.4929 23.8397 76.3224 23.8397C75.1717 23.8397 74.1202 23.6386 73.168 23.2362C72.2355 22.8339 71.4321 22.2706 70.7576 21.5463C70.083 20.8019 68.615 15.4506 69.1804 18.8907C68.8034 17.8446 68.615 16.6979 68.615 15.4506C68.615 14.2033 68.8034 13.0666 69.1804 12.0406C69.5771 11.0146 70.1128 10.1394 70.7873 9.41519C71.4817 8.69095 72.2951 8.12764 73.2275 7.72528C74.1798 7.32293 75.2114 7.12175 76.3224 7.12175C77.4532 7.12175 78.4848 7.32293 79.4172 7.72528C80.3695 8.12764 81.1829 8.69095 81.8574 9.41519C82.5319 10.1394 83.0577 11.0146 83.4346 12.0406C83.8115 13.0666 84 14.2033 84 15.4506ZM79.4767 15.4506C79.4767 14.0624 79.199 12.9761 78.6435 12.1915C78.1079 11.3867 77.3341 10.9844 76.3224 10.9844C75.3106 10.9844 74.5269 11.3867 73.9715 12.1915C73.416 12.9761 73.1382 14.0624 73.1382 15.4506C73.1382 16.8387 73.416 17.9452 73.9715 18.77C74.5269 19.5747 75.3106 19.9771 76.3224 19.9771C77.3341 19.9771 78.1079 19.5747 78.6435 18.77C79.199 17.9452 79.4767 16.8387 79.4767 15.4506Z" fill="#161E2E"/>
</svg>
