<svg width="24" height="24" viewBox="0 0 24 24" fill="none" xmlns="http://www.w3.org/2000/svg">
<path d="M6.39253 4.95929C7.71845 3.90338 9.31558 3.24331 11.0001 3.05505V13.0001H20.9451C20.7568 14.6846 20.0968 16.2817 19.0409 17.6076C17.9849 18.9335 16.5761 19.9344 14.9765 20.4949C13.3768 21.0555 11.6514 21.1529 9.99886 20.7761C8.34627 20.3993 6.83366 19.5636 5.63511 18.365C4.43657 17.1665 3.6008 15.6539 3.224 14.0013C2.8472 12.3487 2.94469 10.6233 3.50523 9.02368C4.06578 7.42405 5.06661 6.0152 6.39253 4.95929Z" stroke="#6B7280" stroke-width="2" stroke-linecap="round" stroke-linejoin="round"/>
<path d="M15 8.99996H20.488C20.0391 7.73458 19.3135 6.5853 18.3641 5.6359C17.4147 4.6865 16.2654 3.96089 15 3.51196V8.99996Z" stroke="#6B7280" stroke-width="2" stroke-linecap="round" stroke-linejoin="round"/>
</svg>
