<svg width="41" height="31" viewBox="0 0 41 31" fill="none" xmlns="http://www.w3.org/2000/svg">
<g clip-path="url(#clip0)">
<path fill-rule="evenodd" clip-rule="evenodd" d="M0 0H57.8835V2.34399H0V0ZM0 4.68798H57.8835V7.03198H0V4.68798ZM0 9.37002H57.8835V11.72H0V9.37002ZM0 14.058H57.8835V16.402H0V14.058ZM0 18.746H57.8835V21.09H0V18.746ZM0 23.428H57.8835V25.772H0V23.428ZM0 28.116H57.8835V30.46H0V28.116Z" fill="#BD3D44"/>
<path fill-rule="evenodd" clip-rule="evenodd" d="M0 2.34399H57.8835V4.68799H0V2.34399ZM0 7.03198H57.8835V9.37002H0V7.03198ZM0 11.714H57.8835V14.058H0V11.714ZM0 16.402H57.8835V18.746H0V16.402ZM0 21.09H57.8835V23.434H0V21.09ZM0 25.772H57.8835V28.116H0V25.772Z" fill="white"/>
<path fill-rule="evenodd" clip-rule="evenodd" d="M0 0H23.1522V16.402H0V0Z" fill="#192F5D"/>
<path fill-rule="evenodd" clip-rule="evenodd" d="M1.92769 0.701904L2.14189 1.35037H2.82022L2.2728 1.74897L2.48105 2.40338L1.92769 1.99883L1.38027 2.39743L1.58852 1.74897L1.03516 1.35037H1.72538L1.92769 0.701904ZM5.78936 0.701904L5.99762 1.35037H6.68189L6.12852 1.74897L6.33678 2.40338L5.78936 1.99883L5.23599 2.39743L5.44425 1.74897L4.89683 1.35037H5.57516L5.78936 0.701904ZM9.64509 0.701904L9.8593 1.35037H10.5317L9.98425 1.74897L10.1925 2.40338L9.63914 1.99883L9.09172 2.39743L9.29998 1.74897L8.74661 1.35037H9.43088L9.64509 0.701904ZM13.5068 0.701904L13.715 1.35037H14.3993L13.8459 1.74897L14.0601 2.40338L13.5068 1.99883L12.9534 2.39743L13.1676 1.74897L12.6142 1.35037H13.2926L13.5068 0.701904ZM17.3625 0.701904L17.5767 1.35037H18.255L17.7076 1.74897L17.9159 2.40338L17.3625 1.99883L16.8151 2.39743L17.0233 1.74897L16.4759 1.35037H17.1542L17.3625 0.701904ZM21.2242 0.701904L21.4324 1.35037H22.1167L21.5633 1.74897L21.7775 2.40338L21.2242 1.99883L20.6708 2.39743L20.885 1.74897L20.3316 1.35037H21.0159L21.2242 0.701904ZM3.8615 2.34389L4.06976 2.99235H4.75403L4.20066 3.39095L4.40297 4.03941L3.86745 3.64082L3.31408 4.03941L3.51044 3.39095L2.97492 2.99235H3.65324L3.8615 2.34389ZM7.71723 2.34389L7.93143 2.99235H8.60976L8.05639 3.39095L8.27059 4.03941L7.71723 3.64082L7.16386 4.03941L7.37806 3.39095L6.8247 2.99235H7.50897L7.71723 2.34389ZM11.5789 2.34389L11.7872 2.99235H12.4714L11.9181 3.39095L12.1263 4.03941L11.5789 3.64082L11.0255 4.03941L11.2338 3.39095L10.6864 2.99235H11.3647L11.5789 2.34389ZM15.4346 2.34389L15.6488 2.99235H16.3272L15.7738 3.39095L15.988 4.03941L15.4346 3.64082L14.8872 4.03941L15.0955 3.39095L14.5421 2.99235H15.2323L15.4346 2.34389ZM19.2963 2.34389L19.5046 2.99235H20.1888L19.6355 3.39095L19.8437 4.03941L19.2963 3.64082L18.7429 4.03941L18.9512 3.39095L18.4038 2.99235H19.0821L19.2963 2.34389ZM1.92769 3.97992L2.14189 4.64029H2.82022L2.2728 5.03888L2.48105 5.68735L1.92769 5.2828L1.38027 5.68735L1.58852 5.03293L1.03516 4.63434H1.72538L1.92769 3.97992ZM5.78936 3.97992L5.99762 4.63434H6.68189L6.12852 5.03293L6.33678 5.6814L5.78936 5.27685L5.23599 5.6814L5.44425 5.02698L4.89683 4.62839H5.57516L5.78936 3.97992ZM9.64509 3.97992L9.8593 4.63434H10.5317L9.98425 5.03293L10.1925 5.6814L9.63914 5.27685L9.09172 5.6814L9.29998 5.02698L8.74661 4.62839H9.43088L9.64509 3.97992ZM13.5068 3.97992L13.715 4.63434H14.3993L13.8459 5.03293L14.0601 5.6814L13.5068 5.27685L12.9534 5.6814L13.1676 5.02698L12.6142 4.62839H13.2926L13.5068 3.97992ZM17.3625 3.97992L17.5767 4.63434H18.255L17.7076 5.03293L17.9159 5.6814L17.3625 5.27685L16.8151 5.6814L17.0233 5.02698L16.4759 4.62839H17.1542L17.3625 3.97992ZM21.2242 3.97992L21.4324 4.63434H22.1167L21.5633 5.03293L21.7775 5.6814L21.2242 5.27685L20.6708 5.6814L20.885 5.02698L20.3316 4.62839H21.0159L21.2242 3.97992ZM3.8615 5.62191L4.06976 6.27037H4.75403L4.20066 6.66897L4.40892 7.32338L3.8615 6.91884L3.30813 7.31743L3.51639 6.66897L2.96897 6.27037H3.64729L3.8615 5.62191ZM7.71723 5.62191L7.93143 6.27037H8.60976L8.05639 6.66897L8.27059 7.32338L7.71723 6.91884L7.16386 7.31743L7.37806 6.66897L6.8247 6.27037H7.50897L7.71723 5.62191ZM11.5789 5.62191L11.7872 6.27037H12.4714L11.9181 6.66897L12.1263 7.32338L11.5789 6.91884L11.0255 7.31743L11.2338 6.66897L10.6864 6.27037H11.3647L11.5789 5.62191ZM15.4346 5.62191L15.6488 6.27037H16.3272L15.7797 6.66897L15.988 7.32338L15.4346 6.91884L14.8872 7.31743L15.0955 6.66897L14.5421 6.27037H15.2323L15.4346 5.62191ZM19.2963 5.62191L19.5046 6.27037H20.1888L19.6355 6.66897L19.8437 7.32338L19.2963 6.91884L18.7429 7.31743L18.9512 6.66897L18.4038 6.27037H19.0821L19.2963 5.62191ZM1.92769 7.26389L2.14189 7.91235H2.82022L2.2728 8.31095L2.48105 8.96536L1.92769 8.56082L1.38027 8.95942L1.58852 8.31095L1.03516 7.91235H1.72538L1.92769 7.26389ZM5.78936 7.26389L5.99762 7.91235H6.68189L6.12852 8.31095L6.33678 8.95942L5.78936 8.56082L5.23599 8.95942L5.44425 8.31095L4.89683 7.91235H5.57516L5.78936 7.26389ZM9.64509 7.26389L9.8593 7.91235H10.5317L9.98425 8.31095L10.1925 8.96536L9.63914 8.56082L9.09172 8.95942L9.29998 8.31095L8.74661 7.91235H9.43088L9.64509 7.26389ZM13.5068 7.26389L13.715 7.91235H14.3993L13.8459 8.31095L14.0601 8.96536L13.5068 8.56082L12.9534 8.95942L13.1676 8.31095L12.6142 7.91235H13.2926L13.5068 7.26389ZM17.3625 7.26389L17.5767 7.91235H18.255L17.7076 8.31095L17.9159 8.96536L17.3625 8.56082L16.8151 8.95942L17.0233 8.31095L16.4759 7.91235H17.1542L17.3625 7.26389ZM21.2242 7.26389L21.4324 7.91235H22.1167L21.5633 8.31095L21.7775 8.96536L21.2242 8.56082L20.6708 8.95942L20.885 8.31095L20.3316 7.91235H21.0159L21.2242 7.26389ZM3.8615 8.90587L4.06976 9.55434H4.75403L4.20066 9.95294L4.40892 10.6014L3.8615 10.1969L3.30813 10.6014L3.51639 9.94699L2.96897 9.54839H3.64729L3.8615 8.90587ZM7.71723 8.90587L7.93143 9.55434H8.60976L8.05639 9.95294L8.27059 10.6014L7.71723 10.1969L7.16386 10.6014L7.37806 9.94699L6.8247 9.54839H7.50897L7.71723 8.90587ZM11.5789 8.90587L11.7872 9.55434H12.4714L11.9181 9.95294L12.1263 10.6014L11.5789 10.1969L11.0255 10.6014L11.2338 9.94699L10.6864 9.54839H11.3647L11.5789 8.90587ZM15.4346 8.90587L15.6488 9.55434H16.3272L15.7797 9.95294L15.988 10.6014L15.4346 10.1969L14.8872 10.6014L15.0955 9.94699L14.5421 9.54839H15.2323L15.4346 8.90587ZM19.2963 8.90587L19.5046 9.55434H20.1888L19.6355 9.95294L19.8437 10.6014L19.2963 10.1969L18.7429 10.6014L18.9512 9.94699L18.4038 9.54839H19.0821L19.2963 8.90587ZM1.92769 10.5419L2.14189 11.1963H2.82022L2.2728 11.5949L2.48105 12.2374L1.92769 11.8388L1.38027 12.2374L1.58852 11.589L1.03516 11.1904H1.72538L1.92769 10.5419ZM5.78936 10.5419L5.99762 11.1963H6.68189L6.12852 11.5949L6.34273 12.2374L5.78936 11.8388L5.23599 12.2374L5.4502 11.589L4.89683 11.1904H5.57516L5.78936 10.5419ZM9.64509 10.5419L9.8593 11.1963H10.5317L9.98425 11.5949L10.1925 12.2374L9.63914 11.8388L9.09172 12.2374L9.29998 11.589L8.74661 11.1904H9.43088L9.64509 10.5419ZM13.5068 10.5419L13.715 11.1963H14.3993L13.8459 11.5949L14.0601 12.2374L13.5068 11.8388L12.9534 12.2374L13.1676 11.589L12.6142 11.1904H13.2926L13.5068 10.5419ZM17.3625 10.5419L17.5767 11.1963H18.255L17.7076 11.5949L17.9159 12.2374L17.3625 11.8388L16.8151 12.2374L17.0233 11.589L16.4759 11.1904H17.1542L17.3625 10.5419ZM21.2242 10.5419L21.4324 11.1963H22.1167L21.5633 11.5949L21.7775 12.2374L21.2242 11.8388L20.6708 12.2374L20.885 11.589L20.3316 11.1904H21.0159L21.2242 10.5419ZM3.8615 12.1839L4.06976 12.8324H4.75403L4.20066 13.231L4.40892 13.8854L3.8615 13.4808L3.30813 13.8794L3.51639 13.231L2.96897 12.8324H3.64729L3.8615 12.1839ZM7.71723 12.1839L7.93143 12.8324H8.60976L8.05639 13.231L8.27059 13.8854L7.71723 13.4808L7.16386 13.8794L7.37806 13.231L6.8247 12.8324H7.50897L7.71723 12.1839ZM11.5789 12.1839L11.7872 12.8324H12.4714L11.9181 13.231L12.1263 13.8854L11.5789 13.4808L11.0255 13.8794L11.2338 13.231L10.6864 12.8324H11.3647L11.5789 12.1839ZM15.4346 12.1839L15.6488 12.8324H16.3272L15.7797 13.231L15.988 13.8854L15.4346 13.4808L14.8872 13.8794L15.0955 13.231L14.5421 12.8324H15.2323L15.4346 12.1839ZM19.2963 12.1839L19.5046 12.8324H20.1888L19.6355 13.231L19.8437 13.8854L19.2963 13.4808L18.7429 13.8794L18.9512 13.231L18.4038 12.8324H19.0821L19.2963 12.1839ZM1.92769 13.8259L2.14189 14.4743H2.82022L2.2728 14.8729L2.48105 15.5214L1.92769 15.1228L1.38027 15.5214L1.58852 14.867L1.03516 14.4684H1.72538L1.92769 13.8259ZM5.78936 13.8259L5.99762 14.4743H6.68189L6.12852 14.8729L6.34273 15.5214L5.78936 15.1228L5.23599 15.5214L5.4502 14.867L4.89683 14.4684H5.57516L5.78936 13.8259ZM9.64509 13.8259L9.8593 14.4743H10.5317L9.99615 14.8729L10.2044 15.5214L9.65104 15.1228L9.10362 15.5214L9.31188 14.867L8.75851 14.4684H9.44278L9.64509 13.8259ZM13.5068 13.8259L13.715 14.4743H14.3993L13.8459 14.8729L14.0601 15.5214L13.5068 15.1228L12.9534 15.5214L13.1676 14.867L12.6142 14.4684H13.2926L13.5068 13.8259ZM17.3625 13.8259L17.5767 14.4743H18.255L17.7076 14.8729L17.9159 15.5214L17.3625 15.1228L16.8151 15.5214L17.0233 14.867L16.4759 14.4684H17.1542L17.3625 13.8259ZM21.2242 13.8259L21.4324 14.4743H22.1167L21.5633 14.8729L21.7775 15.5214L21.2242 15.1228L20.6708 15.5214L20.885 14.867L20.3316 14.4684H21.0159L21.2242 13.8259Z" fill="white"/>
</g>
<defs>
<clipPath id="clip0">
<rect width="40.62" height="30.46" fill="white"/>
</clipPath>
</defs>
</svg>
